<svg xmlns="http://www.w3.org/2000/svg" xmlns:xlink="http://www.w3.org/1999/xlink" width="100" zoomAndPan="magnify" viewBox="0 0 75 74.999997" height="100" preserveAspectRatio="xMidYMid meet" version="1.0"><defs><clipPath id="479d1d37ad"><path d="M 27 7 L 44 7 L 44 38 L 27 38 Z M 27 7 " clip-rule="nonzero"/></clipPath><clipPath id="38c30eb6e5"><path d="M 2.367188 7.5 L 72.867188 7.863281 L 72.554688 67.863281 L 2.058594 67.5 Z M 2.367188 7.5 " clip-rule="nonzero"/></clipPath><clipPath id="527bb70512"><path d="M 2.367188 7.5 L 72.867188 7.863281 L 72.554688 67.863281 L 2.058594 67.5 Z M 2.367188 7.5 " clip-rule="nonzero"/></clipPath><clipPath id="57ab501e91"><path d="M 27 12 L 39 12 L 39 38 L 27 38 Z M 27 12 " clip-rule="nonzero"/></clipPath><clipPath id="6602e9ae9c"><path d="M 2.367188 7.5 L 72.867188 7.863281 L 72.554688 67.863281 L 2.058594 67.5 Z M 2.367188 7.5 " clip-rule="nonzero"/></clipPath><clipPath id="ed4bc23a03"><path d="M 2.367188 7.5 L 72.867188 7.863281 L 72.554688 67.863281 L 2.058594 67.5 Z M 2.367188 7.5 " clip-rule="nonzero"/></clipPath><clipPath id="f64c3afc72"><path d="M 48 13 L 59 13 L 59 23 L 48 23 Z M 48 13 " clip-rule="nonzero"/></clipPath><clipPath id="364ac8c0a2"><path d="M 2.367188 7.5 L 72.867188 7.863281 L 72.554688 67.863281 L 2.058594 67.5 Z M 2.367188 7.5 " clip-rule="nonzero"/></clipPath><clipPath id="981f82d32c"><path d="M 2.367188 7.5 L 72.867188 7.863281 L 72.554688 67.863281 L 2.058594 67.5 Z M 2.367188 7.5 " clip-rule="nonzero"/></clipPath><clipPath id="a0d29d925d"><path d="M 33 18 L 57 18 L 57 46 L 33 46 Z M 33 18 " clip-rule="nonzero"/></clipPath><clipPath id="fb59307cc4"><path d="M 2.367188 7.5 L 72.867188 7.863281 L 72.554688 67.863281 L 2.058594 67.5 Z M 2.367188 7.5 " clip-rule="nonzero"/></clipPath><clipPath id="f9ee2610be"><path d="M 2.367188 7.5 L 72.867188 7.863281 L 72.554688 67.863281 L 2.058594 67.5 Z M 2.367188 7.5 " clip-rule="nonzero"/></clipPath><clipPath id="cc68baa294"><path d="M 15 13 L 27 13 L 27 22 L 15 22 Z M 15 13 " clip-rule="nonzero"/></clipPath><clipPath id="3ff9979125"><path d="M 2.367188 7.5 L 72.867188 7.863281 L 72.554688 67.863281 L 2.058594 67.5 Z M 2.367188 7.5 " clip-rule="nonzero"/></clipPath><clipPath id="df9059b473"><path d="M 2.367188 7.5 L 72.867188 7.863281 L 72.554688 67.863281 L 2.058594 67.5 Z M 2.367188 7.5 " clip-rule="nonzero"/></clipPath><clipPath id="8cfceda6ae"><path d="M 15 19 L 33 19 L 33 50 L 15 50 Z M 15 19 " clip-rule="nonzero"/></clipPath><clipPath id="d23a98781e"><path d="M 2.367188 7.5 L 72.867188 7.863281 L 72.554688 67.863281 L 2.058594 67.5 Z M 2.367188 7.5 " clip-rule="nonzero"/></clipPath><clipPath id="91653a7655"><path d="M 2.367188 7.5 L 72.867188 7.863281 L 72.554688 67.863281 L 2.058594 67.5 Z M 2.367188 7.5 " clip-rule="nonzero"/></clipPath><clipPath id="ca9e45f1f9"><path d="M 10 25 L 31 25 L 31 50 L 10 50 Z M 10 25 " clip-rule="nonzero"/></clipPath><clipPath id="cc79dbd886"><path d="M 2.367188 7.5 L 72.867188 7.863281 L 72.554688 67.863281 L 2.058594 67.5 Z M 2.367188 7.5 " clip-rule="nonzero"/></clipPath><clipPath id="51dcd678fc"><path d="M 2.367188 7.5 L 72.867188 7.863281 L 72.554688 67.863281 L 2.058594 67.5 Z M 2.367188 7.5 " clip-rule="nonzero"/></clipPath><clipPath id="2d09f1778e"><path d="M 42 20 L 73 20 L 73 48 L 42 48 Z M 42 20 " clip-rule="nonzero"/></clipPath><clipPath id="c1b93037ab"><path d="M 2.367188 7.5 L 72.867188 7.863281 L 72.554688 67.863281 L 2.058594 67.5 Z M 2.367188 7.5 " clip-rule="nonzero"/></clipPath><clipPath id="4247aa9ecc"><path d="M 2.367188 7.5 L 72.867188 7.863281 L 72.554688 67.863281 L 2.058594 67.5 Z M 2.367188 7.5 " clip-rule="nonzero"/></clipPath><clipPath id="39d6b4bf8b"><path d="M 45 23 L 67 23 L 67 48 L 45 48 Z M 45 23 " clip-rule="nonzero"/></clipPath><clipPath id="0cf307378d"><path d="M 2.367188 7.5 L 72.867188 7.863281 L 72.554688 67.863281 L 2.058594 67.5 Z M 2.367188 7.5 " clip-rule="nonzero"/></clipPath><clipPath id="71f42b4e25"><path d="M 2.367188 7.5 L 72.867188 7.863281 L 72.554688 67.863281 L 2.058594 67.5 Z M 2.367188 7.5 " clip-rule="nonzero"/></clipPath><clipPath id="d636282f3a"><path d="M 4 14 L 31 14 L 31 50 L 4 50 Z M 4 14 " clip-rule="nonzero"/></clipPath><clipPath id="8bd5164d72"><path d="M 2.367188 7.5 L 72.867188 7.863281 L 72.554688 67.863281 L 2.058594 67.5 Z M 2.367188 7.5 " clip-rule="nonzero"/></clipPath><clipPath id="59ee17813c"><path d="M 2.367188 7.5 L 72.867188 7.863281 L 72.554688 67.863281 L 2.058594 67.5 Z M 2.367188 7.5 " clip-rule="nonzero"/></clipPath><clipPath id="4f364e3c54"><path d="M 7 21 L 31 21 L 31 48 L 7 48 Z M 7 21 " clip-rule="nonzero"/></clipPath><clipPath id="cec8021acd"><path d="M 2.367188 7.5 L 72.867188 7.863281 L 72.554688 67.863281 L 2.058594 67.5 Z M 2.367188 7.5 " clip-rule="nonzero"/></clipPath><clipPath id="a50099db0f"><path d="M 2.367188 7.5 L 72.867188 7.863281 L 72.554688 67.863281 L 2.058594 67.5 Z M 2.367188 7.5 " clip-rule="nonzero"/></clipPath><clipPath id="7ed4fd72c8"><path d="M 35 26 L 62 26 L 62 48 L 35 48 Z M 35 26 " clip-rule="nonzero"/></clipPath><clipPath id="98f32fa90a"><path d="M 2.367188 7.5 L 72.867188 7.863281 L 72.554688 67.863281 L 2.058594 67.5 Z M 2.367188 7.5 " clip-rule="nonzero"/></clipPath><clipPath id="c0aabf1ed3"><path d="M 2.367188 7.5 L 72.867188 7.863281 L 72.554688 67.863281 L 2.058594 67.5 Z M 2.367188 7.5 " clip-rule="nonzero"/></clipPath><clipPath id="0675b82170"><path d="M 13 30 L 60 30 L 60 43 L 13 43 Z M 13 30 " clip-rule="nonzero"/></clipPath><clipPath id="e6c20a6b80"><path d="M 2.367188 7.5 L 72.867188 7.863281 L 72.554688 67.863281 L 2.058594 67.5 Z M 2.367188 7.5 " clip-rule="nonzero"/></clipPath><clipPath id="87af116bef"><path d="M 2.367188 7.5 L 72.867188 7.863281 L 72.554688 67.863281 L 2.058594 67.5 Z M 2.367188 7.5 " clip-rule="nonzero"/></clipPath><clipPath id="1def1eae5a"><path d="M 2 37 L 67 37 L 67 68 L 2 68 Z M 2 37 " clip-rule="nonzero"/></clipPath><clipPath id="1ba4e159ee"><path d="M 2.367188 7.5 L 72.867188 7.863281 L 72.554688 67.863281 L 2.058594 67.5 Z M 2.367188 7.5 " clip-rule="nonzero"/></clipPath><clipPath id="22b0cff41f"><path d="M 2.367188 7.5 L 72.867188 7.863281 L 72.554688 67.863281 L 2.058594 67.5 Z M 2.367188 7.5 " clip-rule="nonzero"/></clipPath><clipPath id="42e69b1c86"><path d="M 3 39 L 66 39 L 66 60 L 3 60 Z M 3 39 " clip-rule="nonzero"/></clipPath><clipPath id="5c57e5dc59"><path d="M 2.367188 7.5 L 72.867188 7.863281 L 72.554688 67.863281 L 2.058594 67.5 Z M 2.367188 7.5 " clip-rule="nonzero"/></clipPath><clipPath id="e3d9902491"><path d="M 2.367188 7.5 L 72.867188 7.863281 L 72.554688 67.863281 L 2.058594 67.5 Z M 2.367188 7.5 " clip-rule="nonzero"/></clipPath></defs><g clip-path="url(#479d1d37ad)"><g clip-path="url(#38c30eb6e5)"><g clip-path="url(#527bb70512)"><path fill="#86b102" d="M 28.621094 37.179688 C 28.507812 37.121094 28.398438 37.054688 28.300781 36.972656 C 28.160156 36.863281 28.046875 36.726562 27.964844 36.566406 C 27.539062 35.726562 28.125 34.488281 28.21875 33.585938 C 28.371094 32.152344 28.28125 30.730469 27.957031 29.324219 C 27.714844 28.296875 27.460938 26.964844 28.34375 26.386719 C 29.226562 25.808594 30.363281 26.597656 31.125 27.335938 C 29.910156 24.90625 28.957031 22.378906 28.269531 19.753906 C 28.066406 18.976562 27.886719 18.152344 28.105469 17.382812 C 28.246094 16.878906 28.523438 16.46875 28.9375 16.144531 C 29.351562 15.824219 29.820312 15.660156 30.339844 15.644531 C 30.863281 15.632812 31.339844 15.777344 31.769531 16.078125 C 32.195312 16.378906 32.496094 16.777344 32.660156 17.273438 C 32.203125 15.421875 31.785156 13.542969 31.886719 11.644531 C 31.960938 10.277344 32.441406 8.757812 33.675781 8.160156 C 34.691406 7.667969 35.929688 7.964844 36.910156 8.53125 C 38.6875 9.570312 39.902344 11.457031 40.320312 13.472656 C 40.738281 15.488281 40.441406 17.613281 39.703125 19.535156 C 40.996094 18.828125 42.710938 19.777344 43.246094 21.140625 C 43.78125 22.503906 43.410156 24.066406 42.78125 25.390625 C 42.101562 26.800781 41.179688 28.03125 40.015625 29.078125 C 38.847656 30.125 37.527344 30.910156 36.046875 31.433594 C 36.855469 31.253906 37.566406 32.195312 37.460938 33.015625 C 37.355469 33.839844 36.710938 34.484375 36.046875 34.984375 C 34.667969 36.019531 30.585938 38.171875 28.621094 37.179688 Z M 28.621094 37.179688 " fill-opacity="1" fill-rule="nonzero"/></g></g></g><g clip-path="url(#57ab501e91)"><g clip-path="url(#6602e9ae9c)"><g clip-path="url(#ed4bc23a03)"><path fill="#7d921c" d="M 28.621094 37.179688 C 28.507812 37.121094 28.398438 37.054688 28.300781 36.972656 C 28.160156 36.863281 28.046875 36.726562 27.964844 36.566406 C 28.679688 35.660156 29.355469 34.722656 29.984375 33.753906 C 29.84375 33.035156 29.699219 32.316406 29.550781 31.601562 C 29.539062 31.480469 29.574219 31.375 29.648438 31.28125 C 29.722656 31.1875 29.820312 31.128906 29.941406 31.113281 C 30.058594 31.097656 30.167969 31.128906 30.265625 31.199219 C 30.363281 31.273438 30.421875 31.367188 30.441406 31.488281 C 30.519531 31.875 30.597656 32.265625 30.671875 32.652344 C 32.007812 30.425781 33.101562 28.085938 33.949219 25.632812 C 33.238281 24.382812 32.527344 23.132812 31.820312 21.886719 C 31.699219 21.671875 31.855469 21.382812 32.058594 21.296875 C 32.171875 21.253906 32.285156 21.253906 32.398438 21.300781 C 32.511719 21.347656 32.59375 21.425781 32.644531 21.535156 C 33.203125 22.519531 33.765625 23.503906 34.324219 24.492188 C 35.042969 22.183594 35.53125 19.832031 35.792969 17.429688 C 34.96875 17.027344 34.378906 16.402344 34.015625 15.558594 C 33.789062 15.027344 34.613281 14.679688 34.839844 15.210938 C 35.0625 15.726562 35.410156 16.140625 35.882812 16.449219 C 35.960938 15.449219 36.003906 14.445312 36 13.453125 C 35.992188 12.882812 36.886719 12.765625 36.886719 13.339844 C 36.882812 14.1875 36.859375 15.035156 36.808594 15.882812 C 37.148438 15.523438 37.488281 15.167969 37.828125 14.8125 C 37.90625 14.714844 38.007812 14.660156 38.128906 14.644531 C 38.25 14.628906 38.359375 14.65625 38.460938 14.730469 C 38.636719 14.875 38.707031 15.183594 38.542969 15.359375 C 37.921875 16 37.308594 16.640625 36.695312 17.289062 C 36.625 18.015625 36.542969 18.738281 36.421875 19.457031 C 36.121094 21.320312 35.6875 23.152344 35.113281 24.953125 C 36.023438 24.800781 36.921875 24.605469 37.808594 24.367188 C 38.046875 24.304688 38.292969 24.359375 38.398438 24.605469 C 38.480469 24.808594 38.394531 25.128906 38.160156 25.191406 C 37.050781 25.496094 35.933594 25.734375 34.796875 25.90625 C 33.933594 28.398438 32.828125 30.773438 31.476562 33.039062 C 31.996094 32.910156 32.5 32.746094 32.992188 32.542969 C 33.105469 32.492188 33.21875 32.492188 33.335938 32.539062 C 33.449219 32.585938 33.53125 32.667969 33.578125 32.78125 C 33.625 32.894531 33.625 33.007812 33.578125 33.125 C 33.53125 33.238281 33.453125 33.320312 33.335938 33.367188 C 32.527344 33.703125 31.691406 33.945312 30.828125 34.09375 C 30.144531 35.160156 29.410156 36.1875 28.621094 37.179688 Z M 28.621094 37.179688 " fill-opacity="1" fill-rule="nonzero"/></g></g></g><g clip-path="url(#f64c3afc72)"><g clip-path="url(#364ac8c0a2)"><g clip-path="url(#981f82d32c)"><path fill="#86b102" d="M 54.113281 22.3125 L 49.1875 19.546875 C 48.902344 18.703125 48.742188 17.832031 48.710938 16.9375 C 48.710938 16.804688 48.710938 16.671875 48.714844 16.539062 C 48.71875 16.261719 48.746094 15.988281 48.785156 15.714844 C 48.828125 15.433594 48.894531 15.160156 48.980469 14.886719 C 49.019531 14.761719 49.0625 14.648438 49.101562 14.539062 C 49.101562 14.523438 49.113281 14.507812 49.121094 14.492188 C 49.160156 14.390625 49.199219 14.296875 49.242188 14.203125 L 49.265625 14.152344 C 49.304688 14.070312 49.34375 13.988281 49.382812 13.917969 L 49.40625 13.878906 C 49.445312 13.808594 49.488281 13.734375 49.527344 13.683594 L 49.539062 13.664062 C 49.578125 13.609375 49.617188 13.558594 49.65625 13.515625 L 49.683594 13.480469 C 49.71875 13.4375 49.757812 13.402344 49.796875 13.367188 L 49.835938 13.332031 C 49.867188 13.300781 49.902344 13.273438 49.941406 13.25 C 49.953125 13.242188 49.964844 13.234375 49.980469 13.226562 C 50.007812 13.210938 50.035156 13.195312 50.066406 13.179688 C 50.082031 13.171875 50.101562 13.164062 50.121094 13.15625 L 50.195312 13.132812 C 50.5 13.066406 50.769531 13.132812 51.011719 13.328125 C 51.46875 13.648438 51.566406 15.097656 51.566406 15.097656 C 51.566406 15.097656 53.296875 12.6875 55.402344 14.03125 C 56.945312 15.023438 55.464844 17.183594 55.464844 17.183594 C 55.464844 17.183594 58.320312 16.777344 58.910156 18.375 C 59.5 19.972656 54.113281 22.3125 54.113281 22.3125 Z M 54.113281 22.3125 " fill-opacity="1" fill-rule="nonzero"/></g></g></g><g clip-path="url(#a0d29d925d)"><g clip-path="url(#fb59307cc4)"><g clip-path="url(#f9ee2610be)"><path fill="#ffb515" d="M 40.628906 43.980469 C 40.53125 44.027344 40.4375 44.066406 40.339844 44.109375 C 39.820312 44.347656 39.289062 44.550781 38.742188 44.714844 C 38.574219 44.765625 38.40625 44.8125 38.246094 44.847656 C 38.082031 44.886719 37.925781 44.917969 37.769531 44.945312 L 37.761719 44.945312 C 37.609375 44.972656 37.457031 44.992188 37.3125 45.007812 L 37.292969 45.007812 C 37.152344 45.019531 37.007812 45.03125 36.863281 45.035156 L 36.847656 45.03125 C 36.710938 45.03125 36.578125 45.03125 36.445312 45.03125 L 36.421875 45.03125 C 36.292969 45.023438 36.171875 45.007812 36.050781 44.992188 L 36.019531 44.992188 C 35.902344 44.972656 35.785156 44.949219 35.675781 44.921875 L 35.640625 44.914062 C 35.53125 44.882812 35.421875 44.851562 35.320312 44.8125 L 35.28125 44.796875 C 35.179688 44.757812 35.085938 44.71875 34.996094 44.667969 L 34.949219 44.644531 C 34.859375 44.597656 34.773438 44.546875 34.6875 44.492188 C 34.671875 44.480469 34.65625 44.46875 34.640625 44.457031 C 34.558594 44.402344 34.480469 44.34375 34.402344 44.28125 L 34.351562 44.234375 C 34.28125 44.171875 34.210938 44.105469 34.144531 44.035156 L 34.09375 43.972656 C 34.027344 43.902344 33.96875 43.828125 33.910156 43.753906 C 33.894531 43.730469 33.875 43.703125 33.859375 43.675781 C 33.804688 43.601562 33.753906 43.519531 33.703125 43.4375 C 33.683594 43.40625 33.667969 43.375 33.652344 43.34375 C 33.605469 43.261719 33.5625 43.175781 33.519531 43.085938 C 33.503906 43.050781 33.488281 43.011719 33.472656 42.976562 C 33.4375 42.886719 33.398438 42.796875 33.367188 42.703125 C 33.351562 42.660156 33.339844 42.613281 33.324219 42.566406 C 33.292969 42.472656 33.265625 42.382812 33.238281 42.28125 C 33.226562 42.230469 33.214844 42.175781 33.203125 42.125 C 33.179688 42.027344 33.160156 41.929688 33.140625 41.828125 C 33.128906 41.769531 33.121094 41.707031 33.113281 41.644531 C 33.097656 41.542969 33.082031 41.441406 33.070312 41.335938 C 33.0625 41.269531 33.058594 41.191406 33.054688 41.132812 C 33.042969 41.027344 33.035156 40.921875 33.03125 40.8125 C 33.03125 40.734375 33.03125 40.65625 33.03125 40.582031 C 33.03125 40.472656 33.035156 40.363281 33.035156 40.253906 C 33.035156 40.167969 33.035156 40.078125 33.042969 39.992188 C 33.042969 39.882812 33.042969 39.769531 33.054688 39.65625 C 33.066406 39.546875 33.074219 39.460938 33.082031 39.371094 C 33.089844 39.28125 33.097656 39.148438 33.109375 39.035156 C 33.125 38.921875 33.136719 38.820312 33.152344 38.710938 C 33.164062 38.601562 33.179688 38.484375 33.199219 38.371094 C 33.214844 38.253906 33.238281 38.132812 33.257812 38.015625 C 33.277344 37.894531 33.292969 37.785156 33.316406 37.667969 C 33.339844 37.550781 33.371094 37.40625 33.398438 37.277344 C 33.425781 37.144531 33.441406 37.050781 33.46875 36.933594 C 33.5 36.789062 33.539062 36.648438 33.578125 36.503906 C 33.605469 36.394531 33.628906 36.285156 33.660156 36.171875 C 33.703125 36 33.753906 35.828125 33.804688 35.652344 C 33.832031 35.558594 33.855469 35.464844 33.882812 35.367188 C 33.964844 35.09375 34.050781 34.8125 34.144531 34.527344 C 34.144531 34.527344 37.070312 26.214844 41.195312 21.40625 C 41.355469 21.21875 41.523438 21.042969 41.691406 20.871094 C 41.742188 20.824219 41.792969 20.777344 41.835938 20.730469 C 41.980469 20.597656 42.117188 20.472656 42.261719 20.351562 L 42.382812 20.246094 C 42.554688 20.105469 42.730469 19.976562 42.910156 19.851562 C 42.921875 19.84375 42.9375 19.835938 42.949219 19.824219 C 42.984375 19.800781 43.019531 19.78125 43.050781 19.761719 C 43.214844 19.652344 43.386719 19.546875 43.558594 19.449219 L 43.703125 19.367188 C 43.898438 19.257812 44.101562 19.152344 44.304688 19.0625 L 44.320312 19.0625 C 44.535156 18.964844 44.75 18.878906 44.976562 18.800781 L 45.097656 18.757812 C 45.289062 18.695312 45.480469 18.636719 45.671875 18.585938 L 45.78125 18.558594 C 46.011719 18.5 46.242188 18.449219 46.476562 18.417969 C 50.179688 17.78125 54.148438 19.609375 55.773438 24.101562 C 58.265625 30.964844 46.78125 41.023438 40.628906 43.980469 Z M 40.628906 43.980469 " fill-opacity="1" fill-rule="nonzero"/></g></g></g><g clip-path="url(#cc68baa294)"><g clip-path="url(#3ff9979125)"><g clip-path="url(#df9059b473)"><path fill="#86b102" d="M 25.34375 20.441406 L 19.90625 21.972656 C 19.105469 21.578125 18.375 21.074219 17.722656 20.464844 C 17.625 20.375 17.53125 20.28125 17.4375 20.175781 C 17.246094 19.976562 17.070312 19.765625 16.90625 19.542969 C 16.738281 19.316406 16.589844 19.078125 16.457031 18.824219 C 16.398438 18.707031 16.347656 18.597656 16.296875 18.492188 L 16.277344 18.441406 C 16.234375 18.34375 16.195312 18.25 16.160156 18.15625 C 16.160156 18.140625 16.148438 18.121094 16.140625 18.101562 C 16.109375 18.015625 16.082031 17.929688 16.058594 17.851562 C 16.058594 17.835938 16.050781 17.824219 16.046875 17.808594 C 16.027344 17.734375 16.007812 17.660156 15.996094 17.585938 L 15.996094 17.5625 C 15.984375 17.496094 15.976562 17.433594 15.972656 17.375 L 15.972656 17.332031 C 15.96875 17.277344 15.96875 17.222656 15.972656 17.171875 C 15.972656 17.152344 15.972656 17.136719 15.972656 17.121094 C 15.976562 17.074219 15.980469 17.03125 15.988281 16.988281 C 15.988281 16.972656 15.988281 16.957031 16 16.941406 C 16.011719 16.925781 16.019531 16.878906 16.027344 16.847656 C 16.039062 16.820312 16.042969 16.808594 16.050781 16.789062 C 16.058594 16.773438 16.074219 16.746094 16.085938 16.722656 C 16.253906 16.460938 16.492188 16.3125 16.804688 16.285156 C 17.351562 16.1875 18.449219 17.152344 18.449219 17.152344 C 18.449219 17.152344 17.96875 14.21875 20.40625 13.6875 C 22.1875 13.289062 22.664062 15.867188 22.664062 15.867188 C 22.664062 15.867188 24.394531 13.558594 25.945312 14.273438 C 27.492188 14.984375 25.34375 20.441406 25.34375 20.441406 Z M 25.34375 20.441406 " fill-opacity="1" fill-rule="nonzero"/></g></g></g><g clip-path="url(#8cfceda6ae)"><g clip-path="url(#d23a98781e)"><g clip-path="url(#91653a7655)"><path fill="#ffb515" d="M 31.136719 45.300781 C 31.097656 45.402344 31.0625 45.5 31.023438 45.597656 C 30.828125 46.132812 30.59375 46.652344 30.324219 47.15625 C 30.238281 47.3125 30.15625 47.460938 30.066406 47.601562 C 29.980469 47.742188 29.890625 47.875 29.800781 48.003906 C 29.710938 48.132812 29.617188 48.253906 29.527344 48.367188 L 29.515625 48.378906 C 29.425781 48.488281 29.332031 48.597656 29.230469 48.695312 C 29.226562 48.703125 29.222656 48.707031 29.21875 48.710938 C 29.121094 48.808594 29.027344 48.902344 28.929688 48.988281 L 28.914062 49.003906 C 28.816406 49.089844 28.71875 49.167969 28.625 49.242188 L 28.601562 49.257812 C 28.503906 49.328125 28.40625 49.394531 28.3125 49.453125 L 28.28125 49.472656 C 28.183594 49.527344 28.085938 49.582031 27.992188 49.625 L 27.953125 49.644531 C 27.859375 49.6875 27.761719 49.726562 27.664062 49.757812 L 27.617188 49.773438 C 27.519531 49.804688 27.421875 49.832031 27.324219 49.851562 L 27.265625 49.859375 C 27.167969 49.878906 27.074219 49.890625 26.976562 49.902344 C 26.957031 49.902344 26.933594 49.902344 26.910156 49.902344 C 26.816406 49.90625 26.71875 49.910156 26.625 49.90625 L 26.542969 49.90625 C 26.449219 49.902344 26.351562 49.894531 26.257812 49.878906 L 26.164062 49.863281 C 26.074219 49.847656 25.980469 49.828125 25.886719 49.800781 L 25.785156 49.773438 C 25.695312 49.746094 25.601562 49.71875 25.507812 49.683594 L 25.398438 49.636719 C 25.308594 49.601562 25.21875 49.5625 25.128906 49.519531 C 25.085938 49.5 25.046875 49.476562 25.003906 49.457031 C 24.917969 49.410156 24.828125 49.367188 24.742188 49.3125 C 24.695312 49.285156 24.652344 49.253906 24.605469 49.226562 C 24.519531 49.171875 24.433594 49.117188 24.351562 49.058594 C 24.300781 49.023438 24.253906 48.984375 24.207031 48.949219 C 24.125 48.890625 24.042969 48.828125 23.960938 48.761719 C 23.90625 48.722656 23.855469 48.671875 23.800781 48.628906 C 23.722656 48.5625 23.640625 48.492188 23.558594 48.417969 C 23.503906 48.367188 23.449219 48.3125 23.390625 48.257812 C 23.3125 48.183594 23.238281 48.113281 23.15625 48.03125 C 23.078125 47.945312 23.039062 47.902344 22.980469 47.839844 C 22.917969 47.777344 22.828125 47.679688 22.753906 47.59375 C 22.675781 47.507812 22.625 47.449219 22.5625 47.371094 C 22.5 47.289062 22.421875 47.199219 22.34375 47.109375 C 22.269531 47.019531 22.210938 46.9375 22.144531 46.851562 C 22.082031 46.765625 22.003906 46.671875 21.9375 46.578125 C 21.867188 46.484375 21.792969 46.382812 21.726562 46.289062 C 21.660156 46.199219 21.59375 46.105469 21.523438 46.003906 C 21.457031 45.902344 21.382812 45.78125 21.304688 45.667969 C 21.226562 45.554688 21.179688 45.476562 21.113281 45.378906 C 21.035156 45.257812 20.957031 45.125 20.878906 44.996094 C 20.820312 44.898438 20.761719 44.804688 20.703125 44.710938 C 20.613281 44.566406 20.523438 44.398438 20.4375 44.242188 C 20.390625 44.15625 20.339844 44.070312 20.296875 43.984375 C 20.15625 43.730469 20.019531 43.472656 19.882812 43.207031 C 19.882812 43.207031 16.078125 35.257812 15.589844 28.941406 C 15.574219 28.695312 15.566406 28.453125 15.566406 28.210938 C 15.570312 28.144531 15.570312 28.078125 15.570312 28.007812 C 15.570312 27.820312 15.585938 27.628906 15.601562 27.4375 C 15.601562 27.382812 15.601562 27.328125 15.613281 27.273438 C 15.636719 27.054688 15.667969 26.84375 15.707031 26.625 C 15.707031 26.609375 15.710938 26.59375 15.71875 26.578125 C 15.722656 26.535156 15.734375 26.496094 15.742188 26.460938 C 15.78125 26.261719 15.828125 26.070312 15.878906 25.878906 C 15.894531 25.824219 15.910156 25.769531 15.925781 25.714844 C 15.988281 25.5 16.058594 25.285156 16.136719 25.074219 L 16.136719 25.0625 C 16.222656 24.839844 16.316406 24.621094 16.417969 24.410156 L 16.476562 24.296875 C 16.566406 24.113281 16.660156 23.9375 16.765625 23.765625 C 16.78125 23.734375 16.800781 23.699219 16.820312 23.667969 C 16.941406 23.464844 17.070312 23.269531 17.207031 23.074219 C 19.402344 20.023438 23.507812 18.511719 27.828125 20.53125 C 34.398438 23.628906 33.386719 38.859375 31.136719 45.300781 Z M 31.136719 45.300781 " fill-opacity="1" fill-rule="nonzero"/></g></g></g><g clip-path="url(#ca9e45f1f9)"><g clip-path="url(#cc79dbd886)"><g clip-path="url(#51dcd678fc)"><path fill="#91264f" d="M 27.683594 47.882812 C 28.894531 46.765625 29.710938 45.417969 30.140625 43.828125 C 30.429688 42.734375 30.597656 41.621094 30.640625 40.488281 C 30.847656 35.476562 28.714844 29.15625 23.488281 26.332031 C 19.890625 24.386719 15.414062 25 13.074219 27.75 C 12.183594 28.800781 11.5625 30.167969 11.234375 31.808594 C 11.101562 32.476562 11.019531 33.152344 10.996094 33.832031 C 10.90625 36.425781 11.460938 38.871094 12.664062 41.171875 C 14.046875 43.855469 16.246094 46.226562 19.023438 48.03125 C 20.089844 48.726562 21.535156 49.535156 23.222656 49.613281 C 24.800781 49.683594 26.390625 49.070312 27.683594 47.882812 Z M 13.015625 32.167969 C 13.285156 30.828125 13.769531 29.738281 14.464844 28.925781 C 16.4375 26.605469 20.167969 26.597656 22.632812 27.929688 C 27.023438 30.300781 29.027344 35.695312 28.832031 40.417969 C 28.796875 41.414062 28.652344 42.394531 28.398438 43.359375 C 27.796875 45.597656 25.8125 47.914062 23.316406 47.796875 C 22.0625 47.742188 20.894531 47.082031 20.027344 46.511719 C 17.5 44.878906 15.515625 42.75 14.273438 40.339844 C 12.925781 37.726562 12.476562 34.828125 13.015625 32.167969 Z M 13.015625 32.167969 " fill-opacity="1" fill-rule="nonzero"/></g></g></g><g clip-path="url(#2d09f1778e)"><g clip-path="url(#c1b93037ab)"><g clip-path="url(#4247aa9ecc)"><path fill="#86b102" d="M 43.074219 38.367188 C 43.203125 37.363281 43.5 36.308594 44.296875 35.703125 C 45.09375 35.097656 46.511719 35.285156 46.804688 36.242188 C 46.472656 34.378906 46.507812 32.519531 46.910156 30.667969 C 47.316406 28.8125 48.058594 27.109375 49.136719 25.550781 C 50.144531 24.101562 51.570312 22.78125 53.324219 22.523438 C 55.082031 22.269531 57.097656 23.515625 57.128906 25.289062 C 58.714844 23.355469 60.761719 21.769531 63.136719 21.015625 C 65.511719 20.261719 68.214844 20.398438 70.371094 21.648438 C 71.550781 22.335938 72.601562 23.460938 72.691406 24.820312 C 72.804688 26.476562 71.492188 27.890625 70.09375 28.789062 C 68.160156 30.03125 65.933594 30.714844 63.71875 31.332031 C 64.023438 31.273438 64.324219 31.261719 64.632812 31.300781 C 64.9375 31.339844 65.230469 31.425781 65.507812 31.558594 C 65.785156 31.6875 66.039062 31.859375 66.261719 32.074219 C 66.484375 32.285156 66.667969 32.527344 66.8125 32.800781 C 66.960938 33.070312 67.058594 33.359375 67.113281 33.660156 C 67.167969 33.964844 67.171875 34.269531 67.125 34.574219 C 67.082031 34.878906 66.992188 35.167969 66.855469 35.445312 C 66.71875 35.722656 66.542969 35.96875 66.324219 36.1875 C 65.648438 36.878906 64.675781 37.183594 63.742188 37.433594 C 60.566406 38.277344 57.339844 38.789062 54.058594 38.964844 C 55.292969 39.324219 56.796875 40.035156 56.71875 41.316406 C 56.644531 42.601562 55.089844 43.121094 53.863281 43.484375 C 52.191406 43.980469 50.644531 44.734375 49.222656 45.75 C 48.328125 46.386719 47.382812 47.746094 46.242188 47.800781 C 46.027344 47.808594 45.816406 47.773438 45.613281 47.691406 C 45.472656 47.636719 45.335938 47.566406 45.207031 47.480469 C 42.988281 46.011719 42.8125 40.433594 43.074219 38.367188 Z M 43.074219 38.367188 " fill-opacity="1" fill-rule="nonzero"/></g></g></g><g clip-path="url(#39d6b4bf8b)"><g clip-path="url(#0cf307378d)"><g clip-path="url(#71f42b4e25)"><path fill="#7d921c" d="M 47.132812 43.316406 C 46.769531 42.320312 46.519531 41.296875 46.386719 40.246094 C 46.367188 40.097656 46.402344 39.960938 46.496094 39.84375 C 46.589844 39.722656 46.710938 39.652344 46.859375 39.636719 C 47.011719 39.617188 47.144531 39.65625 47.261719 39.75 C 47.382812 39.84375 47.449219 39.96875 47.464844 40.117188 C 47.542969 40.757812 47.671875 41.386719 47.847656 42.007812 C 49.421875 39.234375 51.257812 36.648438 53.359375 34.25 C 52.863281 32.957031 52.445312 31.636719 52.101562 30.292969 C 52.03125 30.003906 52.316406 29.71875 52.574219 29.691406 C 52.898438 29.652344 53.105469 29.878906 53.179688 30.164062 C 53.457031 31.246094 53.789062 32.308594 54.175781 33.355469 C 55.726562 31.675781 57.394531 30.125 59.179688 28.695312 C 59.863281 28.140625 60.574219 27.621094 61.292969 27.113281 C 61.601562 26.082031 61.914062 25.050781 62.222656 24.015625 C 62.308594 23.730469 62.679688 23.621094 62.929688 23.734375 C 63.226562 23.859375 63.304688 24.164062 63.222656 24.449219 C 63.046875 25.023438 62.878906 25.59375 62.707031 26.167969 C 63.570312 25.609375 64.4375 25.070312 65.332031 24.566406 C 65.9375 24.222656 66.347656 25.230469 65.742188 25.570312 C 64.6875 26.164062 63.664062 26.804688 62.664062 27.484375 C 63.269531 27.796875 63.910156 27.914062 64.589844 27.835938 C 65.28125 27.757812 65.414062 28.832031 64.714844 28.910156 C 63.613281 29.035156 62.605469 28.785156 61.6875 28.160156 C 59.316406 29.871094 57.136719 31.789062 55.140625 33.921875 C 56.507812 33.929688 57.878906 33.929688 59.25 33.921875 C 59.542969 33.925781 59.8125 34.082031 59.851562 34.398438 C 59.882812 34.664062 59.671875 35 59.378906 35 L 54.164062 35 C 52.089844 37.359375 50.28125 39.902344 48.738281 42.636719 L 50.101562 42.1875 C 50.242188 42.132812 50.378906 42.132812 50.515625 42.1875 C 50.652344 42.246094 50.75 42.339844 50.808594 42.476562 C 50.902344 42.738281 50.804688 43.085938 50.511719 43.183594 C 49.667969 43.464844 48.832031 43.734375 47.988281 44.015625 C 47.347656 45.246094 46.765625 46.511719 46.242188 47.808594 C 46.023438 47.816406 45.8125 47.777344 45.609375 47.699219 C 45.46875 47.640625 45.332031 47.570312 45.203125 47.484375 C 45.777344 46.0625 46.417969 44.671875 47.132812 43.316406 Z M 47.132812 43.316406 " fill-opacity="1" fill-rule="nonzero"/></g></g></g><g clip-path="url(#d636282f3a)"><g clip-path="url(#8bd5164d72)"><g clip-path="url(#59ee17813c)"><path fill="#86b102" d="M 19.964844 48.328125 C 18.921875 48.019531 17.835938 47.519531 17.328125 46.5625 C 16.816406 45.605469 17.261719 44.121094 18.34375 43.972656 C 16.289062 44.007812 14.304688 43.648438 12.394531 42.898438 C 10.480469 42.144531 8.785156 41.058594 7.304688 39.632812 C 5.929688 38.296875 4.761719 36.550781 4.792969 34.628906 C 4.820312 32.707031 6.503906 30.761719 8.40625 31.039062 C 6.613281 29.015625 5.269531 26.542969 4.871094 23.871094 C 4.472656 21.203125 5.085938 18.332031 6.796875 16.246094 C 7.734375 15.105469 9.117188 14.171875 10.59375 14.308594 C 12.382812 14.476562 13.667969 16.121094 14.386719 17.765625 C 15.375 20.050781 15.730469 22.546875 16.011719 25.027344 C 15.996094 23.8125 16.71875 22.597656 17.824219 22.085938 C 19.113281 21.488281 20.8125 21.925781 21.65625 23.078125 C 22.277344 23.921875 22.433594 25.015625 22.542969 26.0625 C 22.898438 29.601562 22.886719 33.140625 22.507812 36.679688 C 23.105469 35.425781 24.128906 33.9375 25.484375 34.242188 C 26.84375 34.546875 27.128906 36.296875 27.308594 37.671875 C 27.550781 39.546875 28.09375 41.332031 28.933594 43.023438 C 29.460938 44.089844 30.753906 45.339844 30.613281 46.566406 C 30.582031 46.800781 30.507812 47.019531 30.386719 47.222656 C 30.300781 47.363281 30.203125 47.496094 30.089844 47.621094 C 28.125 49.742188 22.128906 48.96875 19.964844 48.328125 Z M 19.964844 48.328125 " fill-opacity="1" fill-rule="nonzero"/></g></g></g><g clip-path="url(#4f364e3c54)"><g clip-path="url(#cec8021acd)"><g clip-path="url(#a50099db0f)"><path fill="#7d921c" d="M 25.957031 44.84375 C 24.832031 45.0625 23.695312 45.152344 22.546875 45.109375 C 22.386719 45.105469 22.25 45.042969 22.140625 44.921875 C 22.03125 44.804688 21.976562 44.664062 21.984375 44.503906 C 21.992188 44.339844 22.054688 44.203125 22.171875 44.09375 C 22.292969 43.984375 22.433594 43.933594 22.59375 43.941406 C 23.292969 43.964844 23.988281 43.933594 24.683594 43.855469 C 21.984375 41.695312 19.539062 39.28125 17.335938 36.621094 C 15.867188 36.929688 14.382812 37.148438 12.886719 37.28125 C 12.570312 37.308594 12.3125 36.957031 12.316406 36.671875 C 12.332031 36.320312 12.605469 36.136719 12.929688 36.101562 C 14.132812 35.992188 15.324219 35.820312 16.511719 35.589844 C 14.984375 33.636719 13.613281 31.585938 12.390625 29.433594 C 11.917969 28.601562 11.484375 27.753906 11.066406 26.894531 C 10.015625 26.386719 8.964844 25.878906 7.910156 25.367188 C 7.625 25.222656 7.570312 24.808594 7.726562 24.5625 C 7.910156 24.265625 8.25 24.234375 8.539062 24.371094 C 9.117188 24.664062 9.699219 24.933594 10.277344 25.21875 C 9.832031 24.203125 9.402344 23.175781 9.019531 22.132812 C 8.757812 21.425781 9.90625 21.164062 10.164062 21.867188 C 10.617188 23.097656 11.128906 24.308594 11.683594 25.492188 C 12.121094 24.894531 12.355469 24.230469 12.390625 23.492188 C 12.425781 22.734375 13.597656 22.78125 13.566406 23.539062 C 13.503906 24.742188 13.0625 25.777344 12.234375 26.648438 C 13.65625 29.476562 15.335938 32.144531 17.273438 34.648438 C 17.507812 33.183594 17.746094 31.71875 17.980469 30.25 C 18.03125 29.9375 18.25 29.679688 18.59375 29.6875 C 18.878906 29.703125 19.203125 29.976562 19.164062 30.300781 C 18.867188 32.160156 18.566406 34.019531 18.261719 35.878906 C 20.425781 38.503906 22.835938 40.878906 25.496094 43 L 25.25 41.464844 C 25.214844 41.308594 25.238281 41.160156 25.324219 41.023438 C 25.40625 40.886719 25.527344 40.800781 25.679688 40.761719 C 25.976562 40.707031 26.332031 40.875 26.386719 41.191406 C 26.535156 42.140625 26.6875 43.085938 26.84375 44.035156 C 28.058594 44.9375 29.316406 45.78125 30.613281 46.5625 C 30.582031 46.796875 30.507812 47.015625 30.386719 47.21875 C 30.300781 47.359375 30.203125 47.492188 30.089844 47.617188 C 28.664062 46.761719 27.289062 45.839844 25.957031 44.84375 Z M 25.957031 44.84375 " fill-opacity="1" fill-rule="nonzero"/></g></g></g><g clip-path="url(#7ed4fd72c8)"><g clip-path="url(#98f32fa90a)"><g clip-path="url(#c0aabf1ed3)"><path fill="#91264f" d="M 59.453125 29.003906 C 58.191406 27.734375 56.691406 26.902344 54.953125 26.5 C 53.75 26.226562 52.53125 26.089844 51.300781 26.085938 C 45.847656 26.058594 39.058594 28.625 36.195312 34.414062 C 34.222656 38.402344 35.0625 43.242188 38.140625 45.679688 C 39.316406 46.605469 40.824219 47.226562 42.625 47.519531 C 43.355469 47.636719 44.09375 47.699219 44.832031 47.703125 C 47.65625 47.695312 50.292969 46.992188 52.746094 45.59375 C 55.605469 43.984375 58.101562 41.5 59.953125 38.414062 C 60.667969 37.226562 61.488281 35.625 61.507812 33.785156 C 61.527344 32.074219 60.792969 30.371094 59.453125 29.003906 Z M 42.945312 45.574219 C 41.480469 45.332031 40.277344 44.84375 39.363281 44.121094 C 36.765625 42.070312 36.613281 38.015625 37.964844 35.28125 C 40.367188 30.417969 46.164062 28.023438 51.300781 28.050781 C 52.382812 28.050781 53.453125 28.167969 54.511719 28.40625 C 56.96875 28.96875 59.5625 31.039062 59.539062 33.757812 C 59.53125 35.121094 58.851562 36.414062 58.265625 37.386719 C 56.585938 40.183594 54.34375 42.425781 51.78125 43.867188 C 48.996094 45.445312 45.859375 46.046875 42.945312 45.574219 Z M 42.945312 45.574219 " fill-opacity="1" fill-rule="nonzero"/></g></g></g><g clip-path="url(#0675b82170)"><g clip-path="url(#e6c20a6b80)"><g clip-path="url(#87af116bef)"><path fill="#f9eed2" d="M 35.039062 38.085938 C 34.167969 39.078125 33.152344 39.882812 31.984375 40.503906 C 30.132812 41.46875 29.976562 41.273438 29.976562 41.273438 C 28.914062 41.394531 25.671875 39.347656 25.496094 39.003906 C 25.316406 38.664062 24.351562 35.101562 24.34375 35.058594 L 24.410156 35.09375 C 23.566406 33.703125 29.214844 30.730469 30.085938 31.3125 C 30.789062 31.785156 33.035156 33.75 34.046875 34.644531 C 34.148438 34.730469 34.214844 34.839844 34.238281 34.972656 C 34.394531 35.332031 35.039062 38.085938 35.039062 38.085938 Z M 22.117188 34.074219 C 22.027344 33.03125 16.167969 30.496094 15.613281 32.023438 L 15.597656 31.949219 C 15.570312 31.984375 13.402344 34.96875 13.246094 35.320312 C 13.09375 35.675781 13.53125 39.484375 14.292969 40.238281 C 14.292969 40.238281 14.234375 40.476562 16.148438 41.316406 C 17.363281 41.832031 18.628906 42.117188 19.945312 42.175781 C 19.945312 42.175781 21.691406 39.941406 21.867188 39.609375 C 21.957031 39.507812 22.003906 39.390625 22.011719 39.257812 C 22.070312 37.898438 22.191406 34.917969 22.117188 34.074219 Z M 59.515625 32.964844 C 59.421875 31.921875 53.5625 29.386719 53.007812 30.917969 L 52.992188 30.839844 C 52.964844 30.875 50.796875 33.859375 50.644531 34.214844 C 50.492188 34.566406 50.925781 38.378906 51.6875 39.128906 C 51.6875 39.128906 51.632812 39.367188 53.542969 40.203125 C 54.757812 40.722656 56.023438 41.007812 57.339844 41.066406 C 57.339844 41.066406 59.085938 38.832031 59.261719 38.5 C 59.351562 38.398438 59.398438 38.285156 59.40625 38.152344 C 59.464844 36.789062 59.585938 33.8125 59.515625 32.964844 Z M 45.585938 33.410156 C 45.515625 33.308594 45.421875 33.238281 45.300781 33.203125 C 44.109375 32.828125 41.582031 32.601562 40.8125 32.457031 C 39.855469 32.273438 36.144531 36.3125 37.375 37.128906 L 37.304688 37.125 C 37.324219 37.15625 39.242188 39.171875 39.519531 39.378906 C 39.796875 39.589844 43.539062 40.605469 44.398438 40.179688 C 44.398438 40.179688 44.597656 40.28125 45.820312 38.964844 C 46.574219 38.144531 47.144531 37.207031 47.527344 36.15625 C 47.527344 36.15625 45.867188 33.6875 45.585938 33.410156 Z M 45.585938 33.410156 " fill-opacity="1" fill-rule="nonzero"/></g></g></g><g clip-path="url(#1def1eae5a)"><g clip-path="url(#1ba4e159ee)"><g clip-path="url(#22b0cff41f)"><path fill="#91264f" d="M 66.3125 37.644531 C 66.308594 38.582031 66.253906 39.503906 66.15625 40.421875 C 65.980469 42.046875 65.65625 43.648438 65.191406 45.21875 C 65.152344 45.351562 65.109375 45.484375 65.070312 45.617188 C 64.855469 46.304688 64.613281 46.976562 64.34375 47.640625 C 64.304688 47.746094 64.261719 47.851562 64.214844 47.957031 C 63.820312 48.910156 63.367188 49.835938 62.859375 50.738281 C 62.472656 51.425781 62.058594 52.097656 61.613281 52.746094 C 60.964844 53.703125 60.253906 54.617188 59.488281 55.480469 C 59.257812 55.742188 59.019531 56 58.777344 56.253906 C 58.609375 56.429688 58.441406 56.601562 58.269531 56.773438 C 58.253906 56.792969 58.234375 56.804688 58.214844 56.824219 C 57.914062 57.121094 57.605469 57.414062 57.285156 57.699219 L 57.199219 57.773438 C 56.882812 58.058594 56.558594 58.335938 56.226562 58.597656 L 56.152344 58.65625 C 55.8125 58.929688 55.464844 59.195312 55.113281 59.453125 L 55.066406 59.484375 C 54.703125 59.75 54.332031 60.003906 53.953125 60.25 L 53.945312 60.25 L 53.933594 60.257812 C 53.414062 60.59375 52.878906 60.914062 52.335938 61.21875 L 52.261719 61.257812 C 51.726562 61.554688 51.183594 61.828125 50.628906 62.085938 L 50.523438 62.136719 C 50.253906 62.257812 49.984375 62.378906 49.710938 62.496094 L 49.695312 62.496094 C 49.414062 62.613281 49.132812 62.726562 48.847656 62.835938 L 48.722656 62.882812 C 48.464844 62.976562 48.207031 63.074219 47.941406 63.164062 L 47.859375 63.195312 C 47.570312 63.289062 47.285156 63.378906 46.996094 63.46875 L 46.871094 63.503906 C 46.628906 63.574219 46.382812 63.644531 46.136719 63.710938 L 46.949219 63.714844 C 47.1875 63.722656 47.414062 63.773438 47.628906 63.871094 C 47.84375 63.964844 48.035156 64.097656 48.199219 64.269531 C 48.363281 64.4375 48.488281 64.632812 48.574219 64.855469 C 48.664062 65.074219 48.707031 65.300781 48.707031 65.539062 C 48.703125 65.773438 48.660156 66 48.570312 66.21875 C 48.480469 66.4375 48.351562 66.632812 48.183594 66.800781 C 48.019531 66.96875 47.828125 67.101562 47.613281 67.195312 C 47.394531 67.289062 47.167969 67.335938 46.929688 67.34375 L 21.320312 67.210938 C 21.078125 67.214844 20.839844 67.175781 20.613281 67.085938 C 20.382812 66.992188 20.183594 66.863281 20.007812 66.691406 C 19.832031 66.519531 19.699219 66.320312 19.605469 66.09375 C 19.511719 65.867188 19.464844 65.632812 19.464844 65.386719 C 19.464844 65.140625 19.515625 64.90625 19.613281 64.679688 C 19.707031 64.457031 19.84375 64.257812 20.023438 64.085938 C 20.199219 63.917969 20.402344 63.789062 20.628906 63.699219 C 20.859375 63.613281 21.097656 63.574219 21.339844 63.582031 L 22.152344 63.585938 C 21.921875 63.519531 21.691406 63.453125 21.460938 63.382812 L 21.273438 63.328125 C 21 63.242188 20.730469 63.152344 20.457031 63.058594 L 20.296875 63 C 20.070312 62.921875 19.84375 62.835938 19.617188 62.75 L 19.425781 62.675781 C 19.15625 62.570312 18.894531 62.460938 18.628906 62.347656 L 18.519531 62.300781 C 18.285156 62.199219 18.054688 62.09375 17.828125 61.984375 L 17.644531 61.898438 C 17.382812 61.773438 17.121094 61.644531 16.863281 61.507812 L 16.84375 61.496094 C 16.589844 61.367188 16.339844 61.226562 16.089844 61.089844 L 15.949219 61.007812 C 15.425781 60.71875 14.914062 60.40625 14.421875 60.070312 L 14.382812 60.046875 C 14.363281 60.035156 14.351562 60.023438 14.332031 60.011719 C 14.105469 59.859375 13.878906 59.703125 13.65625 59.546875 L 13.613281 59.515625 C 13.382812 59.351562 13.15625 59.183594 12.929688 59.011719 L 12.789062 58.90625 C 12.605469 58.761719 12.429688 58.625 12.25 58.480469 L 12.109375 58.359375 C 11.894531 58.183594 11.683594 58.007812 11.476562 57.824219 L 11.410156 57.765625 C 11.226562 57.601562 11.042969 57.433594 10.859375 57.261719 L 10.714844 57.125 C 10.527344 56.945312 10.339844 56.765625 10.15625 56.578125 C 10.144531 56.570312 10.132812 56.558594 10.125 56.546875 C 9.925781 56.347656 9.734375 56.148438 9.542969 55.941406 L 9.421875 55.808594 C 9.265625 55.640625 9.113281 55.472656 8.960938 55.300781 C 8.933594 55.269531 8.90625 55.242188 8.882812 55.210938 L 8.84375 55.164062 C 8.488281 54.753906 8.140625 54.328125 7.808594 53.894531 L 7.769531 53.835938 C 6.949219 52.765625 6.21875 51.636719 5.570312 50.453125 C 5.566406 50.449219 5.5625 50.441406 5.5625 50.4375 L 5.554688 50.421875 C 5.0625 49.523438 4.625 48.601562 4.242188 47.65625 C 4.242188 47.648438 4.242188 47.644531 4.242188 47.640625 C 4.230469 47.617188 4.222656 47.59375 4.214844 47.570312 C 4.054688 47.171875 3.902344 46.769531 3.761719 46.363281 C 3.75 46.335938 3.738281 46.300781 3.730469 46.269531 C 3.3125 45.058594 2.984375 43.824219 2.746094 42.570312 C 2.746094 42.535156 2.734375 42.5 2.726562 42.464844 C 2.65625 42.113281 2.585938 41.746094 2.535156 41.378906 C 2.523438 41.3125 2.515625 41.246094 2.507812 41.179688 C 2.464844 40.882812 2.429688 40.585938 2.398438 40.285156 C 2.398438 40.21875 2.382812 40.15625 2.375 40.089844 C 2.34375 39.722656 2.316406 39.355469 2.296875 38.984375 C 2.269531 38.484375 2.253906 37.980469 2.253906 37.472656 C 2.253906 37.417969 2.253906 37.367188 2.253906 37.3125 Z M 66.3125 37.644531 " fill-opacity="1" fill-rule="nonzero"/></g></g></g><g clip-path="url(#42e69b1c86)"><g clip-path="url(#5c57e5dc59)"><g clip-path="url(#e3d9902491)"><path fill="#f9eed2" d="M 65.421875 44.386719 C 65.347656 44.664062 65.277344 44.945312 65.195312 45.21875 C 65.15625 45.351562 65.117188 45.484375 65.074219 45.617188 C 65.058594 45.671875 65.035156 45.726562 65.019531 45.78125 L 63.621094 44.890625 C 62.644531 44.261719 61.671875 43.617188 60.699219 42.957031 L 59.308594 41.992188 L 59.128906 41.867188 L 59.042969 41.804688 C 59.011719 41.789062 58.976562 41.742188 58.964844 41.796875 L 58.726562 42.167969 C 58.085938 43.160156 57.429688 44.144531 56.757812 45.125 C 56.117188 46.078125 55.460938 47.023438 54.792969 47.964844 L 54.019531 49.03125 L 53.917969 49.171875 L 53.90625 49.191406 C 53.90625 49.191406 53.894531 49.183594 53.890625 49.179688 L 53.855469 49.152344 L 53.789062 49.105469 L 53.519531 48.902344 L 52.972656 48.5 L 51.507812 47.394531 C 50.589844 46.695312 49.6875 45.980469 48.796875 45.257812 C 48.351562 44.894531 47.914062 44.53125 47.480469 44.164062 L 47.078125 43.824219 L 46.972656 43.730469 C 46.972656 43.730469 46.964844 43.722656 46.960938 43.722656 L 46.949219 43.738281 L 46.925781 43.761719 L 46.882812 43.820312 L 46.03125 44.914062 C 45.65625 45.375 45.28125 45.832031 44.917969 46.261719 L 43.695312 47.675781 L 42.714844 48.761719 L 42.128906 49.410156 L 41.640625 49.945312 L 41.390625 50.21875 L 41.203125 50.429688 C 41.191406 50.4375 41.183594 50.457031 41.171875 50.457031 L 41.136719 50.421875 L 40.027344 49.382812 L 39.292969 48.675781 C 38.792969 48.191406 38.269531 47.679688 37.738281 47.144531 C 37.207031 46.613281 36.664062 46.054688 36.117188 45.480469 L 35.292969 44.609375 L 34.820312 44.097656 L 33.503906 45.421875 C 32.933594 45.992188 32.359375 46.546875 31.785156 47.09375 C 31.210938 47.644531 30.632812 48.183594 30.058594 48.710938 L 29.109375 49.585938 L 28.484375 50.15625 C 28.460938 50.179688 28.433594 50.203125 28.40625 50.21875 L 28.339844 50.140625 L 28.195312 49.984375 L 27.921875 49.671875 L 27.066406 48.691406 L 26.378906 47.882812 L 25.097656 46.355469 C 24.292969 45.382812 23.59375 44.503906 23.019531 43.777344 L 22.78125 43.480469 L 22.722656 43.410156 C 22.714844 43.410156 22.707031 43.375 22.695312 43.390625 L 22.660156 43.421875 L 22.515625 43.539062 L 21.589844 44.332031 C 20.84375 44.957031 20.089844 45.574219 19.332031 46.179688 C 18.570312 46.789062 17.804688 47.382812 17.03125 47.96875 L 16.238281 48.5625 L 15.796875 48.890625 L 15.738281 48.933594 L 15.710938 48.953125 C 15.699219 48.964844 15.691406 48.96875 15.683594 48.953125 L 15.4375 48.613281 L 14.371094 47.144531 C 13.238281 45.558594 12.136719 43.945312 11.058594 42.296875 L 10.859375 41.988281 L 10.773438 41.863281 L 10.699219 41.753906 C 10.671875 41.71875 10.652344 41.664062 10.609375 41.71875 L 10.398438 41.878906 L 9.832031 42.28125 C 9.019531 42.847656 8.199219 43.417969 7.367188 43.984375 L 5.875 44.992188 L 4.953125 45.597656 L 4.570312 45.847656 L 4.074219 46.152344 L 3.746094 46.347656 L 3.722656 46.273438 C 3.558594 45.796875 3.410156 45.308594 3.269531 44.820312 L 3.382812 45.003906 L 3.441406 45.097656 C 3.445312 45.121094 3.464844 45.097656 3.480469 45.097656 L 3.53125 45.066406 L 3.71875 44.949219 L 4.269531 44.601562 C 6.101562 43.460938 7.898438 42.265625 9.667969 41.015625 L 10.679688 40.304688 L 10.949219 40.117188 C 10.960938 40.109375 10.972656 40.101562 10.984375 40.09375 L 11.003906 40.128906 L 11.046875 40.199219 L 11.136719 40.332031 L 11.484375 40.882812 L 12.050781 41.742188 L 12.496094 42.417969 C 13.089844 43.3125 13.695312 44.199219 14.316406 45.078125 L 15.253906 46.390625 L 15.722656 47.039062 L 15.839844 47.195312 L 15.90625 47.28125 L 15.941406 47.320312 C 15.949219 47.332031 15.96875 47.304688 15.980469 47.296875 L 16.070312 47.230469 L 16.5 46.898438 L 17.761719 45.921875 C 18.503906 45.34375 19.34375 44.679688 20.222656 43.949219 L 21.582031 42.8125 L 22.820312 41.75 L 22.859375 41.71875 L 22.878906 41.699219 C 22.878906 41.699219 22.890625 41.714844 22.894531 41.71875 L 22.960938 41.800781 L 23.085938 41.964844 L 23.34375 42.296875 L 23.855469 42.964844 L 24.46875 43.746094 L 25.070312 44.496094 C 25.472656 44.996094 25.878906 45.492188 26.292969 45.988281 C 26.707031 46.480469 27.121094 46.96875 27.53125 47.453125 C 27.84375 47.8125 28.152344 48.164062 28.453125 48.511719 L 28.484375 48.546875 C 28.484375 48.546875 28.496094 48.5625 28.5 48.558594 L 28.519531 48.542969 L 28.589844 48.480469 L 29.035156 48.066406 L 30.253906 46.925781 C 31.027344 46.191406 31.71875 45.503906 32.300781 44.933594 C 32.589844 44.640625 32.855469 44.371094 33.089844 44.132812 L 33.746094 43.460938 L 34.828125 42.328125 L 35.132812 42.652344 L 36.144531 43.714844 L 36.757812 44.347656 L 37.976562 45.597656 C 38.78125 46.417969 39.582031 47.222656 40.386719 48.015625 L 40.941406 48.558594 C 40.992188 48.617188 41.046875 48.671875 41.105469 48.722656 L 41.273438 48.558594 L 41.828125 47.957031 C 42.589844 47.117188 43.347656 46.257812 44.097656 45.359375 C 44.484375 44.898438 44.867188 44.433594 45.25 43.957031 L 45.828125 43.246094 L 46.761719 42.054688 L 46.789062 42.015625 C 46.800781 42 46.808594 41.988281 46.820312 42.007812 L 46.894531 42.070312 L 47.035156 42.195312 L 47.890625 42.945312 L 48.628906 43.570312 C 49.097656 43.96875 49.574219 44.363281 50.054688 44.75 C 51.011719 45.527344 51.988281 46.292969 52.984375 47.042969 L 53.355469 47.320312 L 53.480469 47.410156 L 53.535156 47.449219 L 53.640625 47.523438 C 53.652344 47.523438 53.660156 47.539062 53.667969 47.535156 L 53.6875 47.507812 L 53.722656 47.453125 L 53.796875 47.34375 L 54.027344 47.015625 L 54.5625 46.25 C 55.179688 45.355469 55.78125 44.457031 56.367188 43.546875 L 57.234375 42.179688 L 58.476562 40.179688 L 58.578125 40.015625 L 58.605469 39.972656 C 58.613281 39.960938 58.621094 39.9375 58.636719 39.957031 L 58.714844 40.011719 L 59.03125 40.230469 L 59.671875 40.671875 C 60.191406 41.035156 60.304688 41.105469 60.550781 41.273438 L 61.910156 42.164062 C 62.820312 42.753906 63.734375 43.339844 64.660156 43.917969 Z M 60.160156 51.152344 C 59.921875 50.992188 59.8125 50.921875 59.316406 50.574219 L 58.703125 50.148438 L 58.398438 49.9375 L 58.324219 49.886719 C 58.308594 49.867188 58.300781 49.886719 58.292969 49.902344 L 58.269531 49.941406 L 58.167969 50.101562 L 56.972656 52.011719 L 56.136719 53.328125 C 55.574219 54.199219 55 55.0625 54.40625 55.921875 L 53.894531 56.65625 L 53.671875 56.980469 L 53.601562 57.082031 L 53.566406 57.136719 L 53.546875 57.164062 C 53.539062 57.164062 53.53125 57.15625 53.523438 57.152344 L 53.371094 57.046875 L 53.25 56.957031 L 52.890625 56.691406 C 51.941406 55.972656 51.003906 55.238281 50.082031 54.492188 C 49.621094 54.121094 49.167969 53.742188 48.714844 53.359375 L 48.003906 52.757812 L 47.449219 52.277344 L 47.175781 52.039062 L 47.03125 51.917969 L 46.960938 51.859375 C 46.949219 51.839844 46.941406 51.859375 46.929688 51.867188 L 46.902344 51.902344 L 46.007812 53.046875 L 45.460938 53.730469 C 45.09375 54.183594 44.726562 54.632812 44.351562 55.078125 C 43.632812 55.933594 42.914062 56.761719 42.171875 57.566406 L 41.640625 58.136719 L 41.480469 58.296875 C 41.425781 58.246094 41.371094 58.195312 41.324219 58.136719 L 40.808594 57.613281 C 40.035156 56.851562 39.265625 56.082031 38.492188 55.292969 L 37.328125 54.09375 L 36.738281 53.484375 C 36.414062 53.148438 36.09375 52.808594 35.765625 52.464844 L 35.46875 52.160156 L 34.429688 53.246094 L 33.800781 53.894531 L 33.042969 54.660156 C 32.480469 55.214844 31.820312 55.867188 31.078125 56.578125 L 29.910156 57.675781 L 29.476562 58.074219 L 29.410156 58.132812 L 29.394531 58.148438 C 29.394531 58.148438 29.382812 58.140625 29.378906 58.136719 L 29.347656 58.101562 L 28.464844 57.089844 L 27.277344 55.683594 C 26.878906 55.203125 26.488281 54.722656 26.101562 54.246094 L 25.53125 53.527344 L 24.9375 52.777344 L 24.445312 52.136719 L 24.195312 51.816406 L 24.074219 51.660156 L 24.011719 51.578125 C 24.011719 51.578125 24.003906 51.5625 23.996094 51.5625 L 23.980469 51.578125 L 23.941406 51.609375 L 22.753906 52.628906 L 21.445312 53.71875 C 20.597656 54.421875 19.796875 55.058594 19.085938 55.613281 L 17.875 56.550781 L 17.460938 56.871094 L 17.378906 56.933594 C 17.363281 56.933594 17.347656 56.96875 17.335938 56.957031 L 17.304688 56.917969 L 17.242188 56.835938 L 17.128906 56.691406 L 16.675781 56.066406 L 15.78125 54.808594 C 15.1875 53.964844 14.601562 53.113281 14.027344 52.253906 L 13.601562 51.605469 L 13.066406 50.769531 L 12.730469 50.242188 L 12.644531 50.113281 L 12.605469 50.046875 L 12.582031 50.015625 C 12.574219 50.015625 12.5625 50.03125 12.550781 50.035156 L 12.292969 50.21875 L 11.320312 50.90625 C 10.066406 51.789062 8.796875 52.648438 7.507812 53.480469 C 7.597656 53.601562 7.679688 53.722656 7.773438 53.84375 L 7.8125 53.898438 C 7.9375 54.058594 8.0625 54.21875 8.1875 54.375 L 9.109375 53.742188 C 9.90625 53.207031 10.695312 52.660156 11.476562 52.113281 L 12.019531 51.726562 L 12.222656 51.574219 C 12.261719 51.523438 12.28125 51.574219 12.304688 51.609375 L 12.375 51.714844 L 12.460938 51.835938 L 12.652344 52.128906 C 13.6875 53.714844 14.746094 55.265625 15.832031 56.785156 L 16.851562 58.195312 L 17.011719 58.414062 L 17.089844 58.523438 C 17.089844 58.539062 17.105469 58.53125 17.113281 58.523438 L 17.140625 58.5 L 17.195312 58.460938 L 17.625 58.140625 L 18.386719 57.570312 C 19.132812 57.007812 19.867188 56.433594 20.597656 55.855469 C 21.328125 55.273438 22.050781 54.683594 22.765625 54.082031 L 23.65625 53.324219 L 23.789062 53.207031 L 23.820312 53.179688 C 23.832031 53.164062 23.835938 53.191406 23.847656 53.199219 L 23.902344 53.265625 L 24.128906 53.554688 C 24.679688 54.253906 25.355469 55.09375 26.121094 56.027344 L 27.347656 57.492188 L 28.007812 58.265625 L 28.832031 59.210938 L 29.097656 59.507812 L 29.230469 59.652344 L 29.296875 59.726562 C 29.324219 59.710938 29.347656 59.6875 29.371094 59.667969 L 29.96875 59.125 L 30.886719 58.289062 C 31.4375 57.785156 31.988281 57.265625 32.539062 56.738281 C 33.089844 56.210938 33.644531 55.671875 34.1875 55.132812 C 34.613281 54.703125 35.035156 54.277344 35.453125 53.859375 L 35.90625 54.351562 C 36.171875 54.632812 36.4375 54.910156 36.699219 55.1875 C 37.226562 55.738281 37.75 56.269531 38.257812 56.785156 C 38.769531 57.296875 39.265625 57.792969 39.746094 58.253906 L 40.460938 58.929688 C 40.824219 59.273438 41.179688 59.605469 41.523438 59.929688 L 41.558594 59.960938 C 41.570312 59.960938 41.578125 59.941406 41.589844 59.933594 L 41.648438 59.867188 L 41.769531 59.734375 L 42.007812 59.476562 L 42.476562 58.960938 L 43.042969 58.339844 L 43.972656 57.292969 L 45.144531 55.9375 C 45.496094 55.523438 45.855469 55.082031 46.210938 54.640625 L 47.042969 53.585938 L 47.085938 53.53125 L 47.105469 53.507812 L 47.113281 53.492188 C 47.113281 53.492188 47.125 53.492188 47.128906 53.5 L 47.230469 53.589844 L 47.617188 53.917969 C 48.03125 54.269531 48.453125 54.617188 48.878906 54.964844 C 49.726562 55.660156 50.589844 56.34375 51.476562 57.015625 L 52.882812 58.078125 L 53.40625 58.464844 L 53.664062 58.65625 L 53.730469 58.707031 L 53.761719 58.730469 C 53.761719 58.730469 53.773438 58.738281 53.777344 58.738281 L 53.789062 58.722656 L 53.886719 58.589844 L 54.628906 57.566406 C 55.273438 56.664062 55.902344 55.757812 56.515625 54.84375 C 57.160156 53.90625 57.789062 52.957031 58.402344 52.003906 L 58.632812 51.648438 C 58.644531 51.59375 58.679688 51.648438 58.707031 51.65625 L 58.792969 51.714844 L 58.964844 51.835938 L 60.300781 52.761719 C 60.59375 52.960938 60.890625 53.160156 61.1875 53.355469 C 61.332031 53.152344 61.476562 52.949219 61.621094 52.742188 C 61.722656 52.597656 61.816406 52.4375 61.914062 52.289062 C 61.765625 52.191406 61.613281 52.097656 61.464844 52 Z M 60.160156 51.152344 " fill-opacity="1" fill-rule="nonzero"/></g></g></g></svg>