<svg xmlns="http://www.w3.org/2000/svg" xmlns:xlink="http://www.w3.org/1999/xlink" width="40" zoomAndPan="magnify" viewBox="0 0 30 30.000001" height="40" preserveAspectRatio="xMidYMid meet" version="1.0"><defs><clipPath id="8b98185295"><path d="M 0.484375 9.910156 L 8.46875 9.910156 L 8.46875 17.890625 L 0.484375 17.890625 Z M 0.484375 9.910156 " clip-rule="nonzero"/></clipPath><clipPath id="4705aa6e69"><path d="M 0.484375 10 L 8 10 L 8 17.890625 L 0.484375 17.890625 Z M 0.484375 10 " clip-rule="nonzero"/></clipPath><clipPath id="671812d4ba"><path d="M 11.15625 9.910156 L 19 9.910156 L 19 17.890625 L 11.15625 17.890625 Z M 11.15625 9.910156 " clip-rule="nonzero"/></clipPath><clipPath id="9d958c2fe3"><path d="M 11.15625 10 L 19 10 L 19 17.890625 L 11.15625 17.890625 Z M 11.15625 10 " clip-rule="nonzero"/></clipPath><clipPath id="0b3446acf9"><path d="M 21.828125 9.910156 L 29.515625 9.910156 L 29.515625 17.890625 L 21.828125 17.890625 Z M 21.828125 9.910156 " clip-rule="nonzero"/></clipPath><clipPath id="b5c4c12399"><path d="M 22 10 L 29.515625 10 L 29.515625 17.890625 L 22 17.890625 Z M 22 10 " clip-rule="nonzero"/></clipPath><clipPath id="4c8069d311"><path d="M 11.699219 10.453125 L 18.230469 10.453125 L 18.230469 16.984375 L 11.699219 16.984375 Z M 11.699219 10.453125 " clip-rule="nonzero"/></clipPath><clipPath id="faf0242af3"><path d="M 22.371094 10.453125 L 28.902344 10.453125 L 28.902344 16.984375 L 22.371094 16.984375 Z M 22.371094 10.453125 " clip-rule="nonzero"/></clipPath><clipPath id="783590ee09"><path d="M 1.027344 10.453125 L 7.558594 10.453125 L 7.558594 16.984375 L 1.027344 16.984375 Z M 1.027344 10.453125 " clip-rule="nonzero"/></clipPath></defs><g clip-path="url(#8b98185295)"><path fill="#a6a6a6" d="M 8.171875 13.753906 C 8.171875 14.003906 8.148438 14.253906 8.097656 14.503906 C 8.050781 14.75 7.976562 14.992188 7.878906 15.222656 C 7.785156 15.457031 7.664062 15.679688 7.523438 15.890625 C 7.382812 16.097656 7.226562 16.292969 7.046875 16.472656 C 6.867188 16.648438 6.675781 16.808594 6.464844 16.949219 C 6.253906 17.089844 6.03125 17.207031 5.800781 17.304688 C 5.566406 17.402344 5.324219 17.472656 5.078125 17.523438 C 4.832031 17.574219 4.582031 17.597656 4.328125 17.597656 C 4.074219 17.597656 3.824219 17.574219 3.578125 17.523438 C 3.332031 17.472656 3.089844 17.402344 2.855469 17.304688 C 2.625 17.207031 2.402344 17.089844 2.191406 16.949219 C 1.984375 16.808594 1.789062 16.648438 1.609375 16.472656 C 1.429688 16.292969 1.273438 16.097656 1.132812 15.890625 C 0.992188 15.679688 0.875 15.457031 0.777344 15.222656 C 0.679688 14.992188 0.605469 14.75 0.558594 14.503906 C 0.507812 14.253906 0.484375 14.003906 0.484375 13.753906 C 0.484375 13.5 0.507812 13.25 0.558594 13.003906 C 0.605469 12.753906 0.679688 12.515625 0.777344 12.28125 C 0.875 12.046875 0.992188 11.828125 1.132812 11.617188 C 1.273438 11.40625 1.429688 11.214844 1.609375 11.035156 C 1.789062 10.855469 1.984375 10.695312 2.191406 10.554688 C 2.402344 10.417969 2.625 10.296875 2.855469 10.203125 C 3.089844 10.105469 3.332031 10.03125 3.578125 9.984375 C 3.824219 9.933594 4.074219 9.910156 4.328125 9.910156 C 4.582031 9.910156 4.832031 9.933594 5.078125 9.984375 C 5.324219 10.03125 5.566406 10.105469 5.800781 10.203125 C 6.03125 10.296875 6.253906 10.417969 6.464844 10.554688 C 6.675781 10.695312 6.867188 10.855469 7.046875 11.035156 C 7.226562 11.214844 7.382812 11.40625 7.523438 11.617188 C 7.664062 11.828125 7.785156 12.046875 7.878906 12.28125 C 7.976562 12.515625 8.050781 12.753906 8.097656 13.003906 C 8.148438 13.25 8.171875 13.5 8.171875 13.753906 Z M 8.171875 13.753906 " fill-opacity="1" fill-rule="nonzero"/></g><g clip-path="url(#4705aa6e69)"><path fill="#000000" d="M 4.328125 17.230469 C 2.410156 17.230469 0.851562 15.671875 0.851562 13.753906 C 0.851562 11.832031 2.410156 10.273438 4.328125 10.273438 C 6.246094 10.273438 7.804688 11.832031 7.804688 13.753906 C 7.804688 15.671875 6.246094 17.230469 4.328125 17.230469 Z M 4.328125 10.359375 C 2.453125 10.359375 0.9375 11.878906 0.9375 13.753906 C 0.9375 15.625 2.460938 17.144531 4.328125 17.144531 C 6.203125 17.144531 7.71875 15.621094 7.71875 13.753906 C 7.71875 11.878906 6.203125 10.359375 4.328125 10.359375 Z M 4.328125 10.359375 " fill-opacity="1" fill-rule="nonzero"/></g><g clip-path="url(#671812d4ba)"><path fill="#a6a6a6" d="M 18.84375 13.753906 C 18.84375 14.003906 18.820312 14.253906 18.769531 14.503906 C 18.722656 14.75 18.648438 14.992188 18.550781 15.222656 C 18.457031 15.457031 18.335938 15.679688 18.195312 15.890625 C 18.054688 16.097656 17.898438 16.292969 17.71875 16.472656 C 17.539062 16.648438 17.347656 16.808594 17.136719 16.949219 C 16.925781 17.089844 16.703125 17.207031 16.472656 17.304688 C 16.238281 17.402344 15.996094 17.472656 15.75 17.523438 C 15.503906 17.574219 15.253906 17.597656 15 17.597656 C 14.746094 17.597656 14.496094 17.574219 14.25 17.523438 C 14.003906 17.472656 13.761719 17.402344 13.527344 17.304688 C 13.296875 17.207031 13.074219 17.089844 12.863281 16.949219 C 12.652344 16.808594 12.460938 16.648438 12.28125 16.472656 C 12.101562 16.292969 11.945312 16.097656 11.804688 15.890625 C 11.664062 15.679688 11.542969 15.457031 11.449219 15.222656 C 11.351562 14.992188 11.277344 14.75 11.230469 14.503906 C 11.179688 14.253906 11.15625 14.003906 11.15625 13.753906 C 11.15625 13.5 11.179688 13.25 11.230469 13.003906 C 11.277344 12.753906 11.351562 12.515625 11.449219 12.28125 C 11.542969 12.046875 11.664062 11.828125 11.804688 11.617188 C 11.945312 11.40625 12.101562 11.214844 12.28125 11.035156 C 12.460938 10.855469 12.652344 10.695312 12.863281 10.554688 C 13.074219 10.417969 13.296875 10.296875 13.527344 10.203125 C 13.761719 10.105469 14.003906 10.03125 14.25 9.984375 C 14.496094 9.933594 14.746094 9.910156 15 9.910156 C 15.253906 9.910156 15.503906 9.933594 15.75 9.984375 C 15.996094 10.03125 16.238281 10.105469 16.472656 10.203125 C 16.703125 10.296875 16.925781 10.417969 17.136719 10.554688 C 17.347656 10.695312 17.539062 10.855469 17.71875 11.035156 C 17.898438 11.214844 18.054688 11.40625 18.195312 11.617188 C 18.335938 11.828125 18.457031 12.046875 18.550781 12.28125 C 18.648438 12.515625 18.722656 12.753906 18.769531 13.003906 C 18.820312 13.25 18.84375 13.5 18.84375 13.753906 Z M 18.84375 13.753906 " fill-opacity="1" fill-rule="nonzero"/></g><g clip-path="url(#9d958c2fe3)"><path fill="#000000" d="M 15 17.230469 C 13.082031 17.230469 11.523438 15.671875 11.523438 13.753906 C 11.523438 11.832031 13.082031 10.273438 15 10.273438 C 16.917969 10.273438 18.476562 11.832031 18.476562 13.753906 C 18.476562 15.671875 16.917969 17.230469 15 17.230469 Z M 15 10.359375 C 13.125 10.359375 11.609375 11.878906 11.609375 13.753906 C 11.609375 15.625 13.132812 17.144531 15 17.144531 C 16.875 17.144531 18.390625 15.621094 18.390625 13.753906 C 18.390625 11.878906 16.875 10.359375 15 10.359375 Z M 15 10.359375 " fill-opacity="1" fill-rule="nonzero"/></g><g clip-path="url(#0b3446acf9)"><path fill="#a6a6a6" d="M 29.515625 13.753906 C 29.515625 14.003906 29.492188 14.253906 29.441406 14.503906 C 29.394531 14.75 29.320312 14.992188 29.222656 15.222656 C 29.125 15.457031 29.007812 15.679688 28.867188 15.890625 C 28.726562 16.097656 28.570312 16.292969 28.390625 16.472656 C 28.210938 16.648438 28.015625 16.808594 27.808594 16.949219 C 27.597656 17.089844 27.375 17.207031 27.144531 17.304688 C 26.910156 17.402344 26.667969 17.472656 26.421875 17.523438 C 26.175781 17.574219 25.925781 17.597656 25.671875 17.597656 C 25.417969 17.597656 25.167969 17.574219 24.921875 17.523438 C 24.675781 17.472656 24.433594 17.402344 24.199219 17.304688 C 23.96875 17.207031 23.746094 17.089844 23.535156 16.949219 C 23.324219 16.808594 23.132812 16.648438 22.953125 16.472656 C 22.773438 16.292969 22.613281 16.097656 22.476562 15.890625 C 22.335938 15.679688 22.214844 15.457031 22.121094 15.222656 C 22.023438 14.992188 21.949219 14.75 21.902344 14.503906 C 21.851562 14.253906 21.828125 14.003906 21.828125 13.753906 C 21.828125 13.5 21.851562 13.25 21.902344 13.003906 C 21.949219 12.753906 22.023438 12.515625 22.121094 12.28125 C 22.214844 12.046875 22.335938 11.828125 22.476562 11.617188 C 22.613281 11.40625 22.773438 11.214844 22.953125 11.035156 C 23.132812 10.855469 23.324219 10.695312 23.535156 10.554688 C 23.746094 10.417969 23.96875 10.296875 24.199219 10.203125 C 24.433594 10.105469 24.675781 10.03125 24.921875 9.984375 C 25.167969 9.933594 25.417969 9.910156 25.671875 9.910156 C 25.925781 9.910156 26.175781 9.933594 26.421875 9.984375 C 26.667969 10.03125 26.910156 10.105469 27.144531 10.203125 C 27.375 10.296875 27.597656 10.417969 27.808594 10.554688 C 28.015625 10.695312 28.210938 10.855469 28.390625 11.035156 C 28.570312 11.214844 28.726562 11.40625 28.867188 11.617188 C 29.007812 11.828125 29.125 12.046875 29.222656 12.28125 C 29.320312 12.515625 29.394531 12.753906 29.441406 13.003906 C 29.492188 13.25 29.515625 13.5 29.515625 13.753906 Z M 29.515625 13.753906 " fill-opacity="1" fill-rule="nonzero"/></g><g clip-path="url(#b5c4c12399)"><path fill="#000000" d="M 25.671875 17.230469 C 23.753906 17.230469 22.195312 15.671875 22.195312 13.753906 C 22.195312 11.832031 23.753906 10.273438 25.671875 10.273438 C 27.589844 10.273438 29.148438 11.832031 29.148438 13.753906 C 29.148438 15.671875 27.589844 17.230469 25.671875 17.230469 Z M 25.671875 10.359375 C 23.796875 10.359375 22.28125 11.878906 22.28125 13.753906 C 22.28125 15.625 23.804688 17.144531 25.671875 17.144531 C 27.546875 17.144531 29.0625 15.621094 29.0625 13.753906 C 29.0625 11.878906 27.546875 10.359375 25.671875 10.359375 Z M 25.671875 10.359375 " fill-opacity="1" fill-rule="nonzero"/></g><g clip-path="url(#4c8069d311)"><path fill="#ffffff" d="M 18.230469 13.71875 C 18.230469 14.152344 18.148438 14.566406 17.980469 14.96875 C 17.816406 15.367188 17.582031 15.722656 17.273438 16.027344 C 16.96875 16.332031 16.613281 16.570312 16.214844 16.734375 C 15.816406 16.902344 15.398438 16.984375 14.964844 16.984375 C 14.53125 16.984375 14.113281 16.902344 13.714844 16.734375 C 13.316406 16.570312 12.960938 16.332031 12.65625 16.027344 C 12.347656 15.722656 12.113281 15.367188 11.949219 14.96875 C 11.78125 14.566406 11.699219 14.152344 11.699219 13.71875 C 11.699219 13.285156 11.78125 12.867188 11.949219 12.46875 C 12.113281 12.066406 12.347656 11.714844 12.65625 11.410156 C 12.960938 11.101562 13.316406 10.867188 13.714844 10.699219 C 14.113281 10.535156 14.53125 10.453125 14.964844 10.453125 C 15.398438 10.453125 15.816406 10.535156 16.214844 10.699219 C 16.613281 10.867188 16.96875 11.101562 17.273438 11.410156 C 17.582031 11.714844 17.816406 12.066406 17.980469 12.46875 C 18.148438 12.867188 18.230469 13.285156 18.230469 13.71875 Z M 18.230469 13.71875 " fill-opacity="1" fill-rule="nonzero"/></g><g clip-path="url(#faf0242af3)"><path fill="#ffffff" d="M 28.902344 13.71875 C 28.902344 14.152344 28.820312 14.566406 28.652344 14.96875 C 28.488281 15.367188 28.253906 15.722656 27.945312 16.027344 C 27.640625 16.332031 27.285156 16.570312 26.886719 16.734375 C 26.484375 16.902344 26.070312 16.984375 25.636719 16.984375 C 25.203125 16.984375 24.785156 16.902344 24.386719 16.734375 C 23.984375 16.570312 23.632812 16.332031 23.328125 16.027344 C 23.019531 15.722656 22.785156 15.367188 22.617188 14.96875 C 22.453125 14.566406 22.371094 14.152344 22.371094 13.71875 C 22.371094 13.285156 22.453125 12.867188 22.617188 12.46875 C 22.785156 12.066406 23.019531 11.714844 23.328125 11.410156 C 23.632812 11.101562 23.984375 10.867188 24.386719 10.699219 C 24.785156 10.535156 25.203125 10.453125 25.636719 10.453125 C 26.070312 10.453125 26.484375 10.535156 26.886719 10.699219 C 27.285156 10.867188 27.640625 11.101562 27.945312 11.410156 C 28.253906 11.714844 28.488281 12.066406 28.652344 12.46875 C 28.820312 12.867188 28.902344 13.285156 28.902344 13.71875 Z M 28.902344 13.71875 " fill-opacity="1" fill-rule="nonzero"/></g><g clip-path="url(#783590ee09)"><path fill="#ffffff" d="M 7.558594 13.71875 C 7.558594 14.152344 7.476562 14.566406 7.3125 14.96875 C 7.144531 15.367188 6.910156 15.722656 6.601562 16.027344 C 6.296875 16.332031 5.941406 16.570312 5.542969 16.734375 C 5.144531 16.902344 4.726562 16.984375 4.292969 16.984375 C 3.859375 16.984375 3.445312 16.902344 3.042969 16.734375 C 2.644531 16.570312 2.289062 16.332031 1.984375 16.027344 C 1.675781 15.722656 1.441406 15.367188 1.277344 14.96875 C 1.109375 14.566406 1.027344 14.152344 1.027344 13.71875 C 1.027344 13.285156 1.109375 12.867188 1.277344 12.46875 C 1.441406 12.066406 1.675781 11.714844 1.984375 11.410156 C 2.289062 11.101562 2.644531 10.867188 3.042969 10.699219 C 3.445312 10.535156 3.859375 10.453125 4.292969 10.453125 C 4.726562 10.453125 5.144531 10.535156 5.542969 10.699219 C 5.941406 10.867188 6.296875 11.101562 6.601562 11.410156 C 6.910156 11.714844 7.144531 12.066406 7.3125 12.46875 C 7.476562 12.867188 7.558594 13.285156 7.558594 13.71875 Z M 7.558594 13.71875 " fill-opacity="1" fill-rule="nonzero"/></g></svg>