<svg xmlns="http://www.w3.org/2000/svg" xmlns:xlink="http://www.w3.org/1999/xlink" width="40" zoomAndPan="magnify" viewBox="0 0 30 30.000001" height="40" preserveAspectRatio="xMidYMid meet" version="1.0"><defs><clipPath id="0e2f640c05"><path d="M 0.703125 0.21875 L 29.515625 0.21875 L 29.515625 29.03125 L 0.703125 29.03125 Z M 0.703125 0.21875 " clip-rule="nonzero"/></clipPath><clipPath id="8963e63858"><path d="M 15.109375 0.21875 C 7.152344 0.21875 0.703125 6.667969 0.703125 14.625 C 0.703125 22.582031 7.152344 29.03125 15.109375 29.03125 C 23.066406 29.03125 29.515625 22.582031 29.515625 14.625 C 29.515625 6.667969 23.066406 0.21875 15.109375 0.21875 Z M 15.109375 0.21875 " clip-rule="nonzero"/></clipPath><clipPath id="36bafdf36d"><path d="M 6.542969 4.738281 L 23.964844 4.738281 L 23.964844 24.335938 L 6.542969 24.335938 Z M 6.542969 4.738281 " clip-rule="nonzero"/></clipPath></defs><g clip-path="url(#0e2f640c05)"><g clip-path="url(#8963e63858)"><path fill="#ea9f0e" d="M 0.703125 0.21875 L 29.515625 0.21875 L 29.515625 29.03125 L 0.703125 29.03125 Z M 0.703125 0.21875 " fill-opacity="1" fill-rule="nonzero"/></g></g><g clip-path="url(#36bafdf36d)"><path fill="#ffffff" d="M 22.273438 6.878906 L 19.425781 6.878906 L 19.425781 6.472656 C 19.425781 5.515625 18.648438 4.742188 17.695312 4.742188 L 12.496094 4.742188 C 11.542969 4.742188 10.765625 5.515625 10.765625 6.472656 L 10.765625 6.878906 L 7.917969 6.878906 C 7.171875 6.878906 6.5625 7.484375 6.5625 8.230469 L 6.5625 8.875 C 6.5625 9.570312 7.09375 10.148438 7.773438 10.21875 L 9.167969 22.453125 C 9.300781 23.621094 10.289062 24.5 11.464844 24.5 L 18.726562 24.5 C 19.902344 24.5 20.890625 23.621094 21.023438 22.453125 L 22.414062 10.21875 C 23.097656 10.148438 23.628906 9.570312 23.628906 8.875 L 23.628906 8.230469 C 23.628906 7.484375 23.019531 6.878906 22.273438 6.878906 Z M 11.644531 6.472656 C 11.644531 6 12.027344 5.621094 12.496094 5.621094 L 17.695312 5.621094 C 18.164062 5.621094 18.546875 6 18.546875 6.472656 L 18.546875 6.878906 L 11.644531 6.878906 Z M 20.148438 22.351562 C 20.066406 23.078125 19.453125 23.625 18.726562 23.625 L 11.464844 23.625 C 10.738281 23.625 10.125 23.078125 10.042969 22.351562 L 8.660156 10.226562 L 21.53125 10.226562 Z M 22.75 8.875 C 22.75 9.136719 22.535156 9.347656 22.273438 9.347656 L 7.917969 9.347656 C 7.65625 9.347656 7.441406 9.136719 7.441406 8.875 L 7.441406 8.230469 C 7.441406 7.96875 7.65625 7.757812 7.917969 7.757812 L 22.273438 7.757812 C 22.535156 7.757812 22.75 7.96875 22.75 8.230469 Z M 22.75 8.875 " fill-opacity="1" fill-rule="nonzero"/></g><path fill="#ffffff" d="M 15.09375 21.246094 C 15.339844 21.246094 15.535156 21.050781 15.535156 20.804688 L 15.535156 13.042969 C 15.535156 12.800781 15.339844 12.605469 15.09375 12.605469 C 14.851562 12.605469 14.65625 12.800781 14.65625 13.042969 L 14.65625 20.804688 C 14.65625 21.050781 14.851562 21.246094 15.09375 21.246094 Z M 15.09375 21.246094 " fill-opacity="1" fill-rule="nonzero"/><path fill="#ffffff" d="M 17.722656 21.226562 C 17.734375 21.226562 17.75 21.226562 17.765625 21.226562 C 17.988281 21.226562 18.179688 21.058594 18.203125 20.832031 L 18.953125 13.105469 C 18.976562 12.863281 18.800781 12.648438 18.558594 12.625 C 18.3125 12.601562 18.101562 12.777344 18.078125 13.019531 L 17.328125 20.746094 C 17.304688 20.988281 17.480469 21.203125 17.722656 21.226562 Z M 17.722656 21.226562 " fill-opacity="1" fill-rule="nonzero"/><path fill="#ffffff" d="M 12.425781 21.226562 C 12.441406 21.226562 12.457031 21.226562 12.46875 21.226562 C 12.710938 21.203125 12.886719 20.988281 12.863281 20.746094 L 12.113281 13.019531 C 12.089844 12.777344 11.875 12.601562 11.632812 12.625 C 11.390625 12.648438 11.214844 12.863281 11.238281 13.105469 L 11.988281 20.832031 C 12.011719 21.058594 12.203125 21.226562 12.425781 21.226562 Z M 12.425781 21.226562 " fill-opacity="1" fill-rule="nonzero"/></svg>