<svg xmlns="http://www.w3.org/2000/svg" xmlns:xlink="http://www.w3.org/1999/xlink" width="50" zoomAndPan="magnify" viewBox="0 0 37.5 164.999994" height="220" preserveAspectRatio="xMidYMid meet" version="1.0"><defs><clipPath id="c099a0a607"><path d="M 7.726562 31.777344 L 29.1875 31.777344 L 29.1875 133.175781 L 7.726562 133.175781 Z M 7.726562 31.777344 " clip-rule="nonzero"/></clipPath></defs><g clip-path="url(#c099a0a607)"><path fill="#000000" d="M 29.101562 56.039062 L 28.527344 33.21875 C 28.527344 33.21875 28.453125 31.824219 27.734375 31.796875 C 27.730469 31.796875 27.726562 31.796875 27.722656 31.796875 C 27.71875 31.796875 27.714844 31.796875 27.707031 31.796875 C 26.988281 31.828125 26.917969 33.21875 26.917969 33.21875 L 26.34375 56.039062 L 22.925781 56.039062 L 22.347656 33.222656 C 22.347656 33.222656 22.277344 31.828125 21.558594 31.796875 C 21.550781 31.796875 21.550781 31.796875 21.542969 31.796875 C 21.539062 31.796875 21.539062 31.796875 21.53125 31.796875 C 20.8125 31.828125 20.742188 33.222656 20.742188 33.222656 L 20.167969 56.039062 L 16.746094 56.039062 L 16.171875 33.222656 C 16.171875 33.222656 16.101562 31.828125 15.378906 31.796875 C 15.375 31.796875 15.371094 31.796875 15.367188 31.796875 C 15.363281 31.796875 15.359375 31.796875 15.355469 31.796875 C 14.636719 31.828125 14.566406 33.222656 14.566406 33.222656 L 13.992188 56.039062 L 10.570312 56.039062 L 9.996094 33.222656 C 9.996094 33.222656 9.925781 31.828125 9.207031 31.796875 C 9.199219 31.796875 9.195312 31.796875 9.191406 31.796875 C 9.1875 31.796875 9.1875 31.796875 9.179688 31.796875 C 8.460938 31.828125 8.390625 33.222656 8.390625 33.222656 L 7.8125 56.039062 L 7.820312 56.042969 C 7.839844 56.171875 8.9375 63.492188 13.046875 66.902344 C 13.046875 66.902344 16.113281 69.617188 16.113281 75.589844 L 13.765625 126.824219 C 13.765625 126.824219 13.585938 131.167969 18.457031 133.160156 C 23.324219 131.167969 23.144531 126.824219 23.144531 126.824219 L 20.800781 75.589844 C 20.800781 69.617188 23.867188 66.902344 23.867188 66.902344 C 27.976562 63.492188 29.074219 56.171875 29.09375 56.042969 Z M 29.101562 56.039062 " fill-opacity="1" fill-rule="nonzero"/></g></svg>