<svg xmlns="http://www.w3.org/2000/svg" xmlns:xlink="http://www.w3.org/1999/xlink" width="40" zoomAndPan="magnify" viewBox="0 0 30 30.000001" height="40" preserveAspectRatio="xMidYMid meet" version="1.0"><defs><clipPath id="ad8e7e1d93"><path d="M 1.519531 1.179688 L 28.480469 1.179688 L 28.480469 28.144531 L 1.519531 28.144531 Z M 1.519531 1.179688 " clip-rule="nonzero"/></clipPath><clipPath id="64ee67902e"><path d="M 15 1.179688 C 7.554688 1.179688 1.519531 7.214844 1.519531 14.660156 C 1.519531 22.105469 7.554688 28.144531 15 28.144531 C 22.445312 28.144531 28.480469 22.105469 28.480469 14.660156 C 28.480469 7.214844 22.445312 1.179688 15 1.179688 Z M 15 1.179688 " clip-rule="nonzero"/></clipPath><clipPath id="6f60d655ea"><path d="M 6.542969 6.207031 L 23.238281 6.207031 L 23.238281 22.898438 L 6.542969 22.898438 Z M 6.542969 6.207031 " clip-rule="nonzero"/></clipPath></defs><g clip-path="url(#ad8e7e1d93)"><g clip-path="url(#64ee67902e)"><path fill="#ea9f0e" d="M 1.519531 1.179688 L 28.480469 1.179688 L 28.480469 28.144531 L 1.519531 28.144531 Z M 1.519531 1.179688 " fill-opacity="1" fill-rule="nonzero"/></g></g><g clip-path="url(#6f60d655ea)"><path fill="#ffffff" d="M 14.976562 6.1875 C 14.792969 6.1875 14.617188 6.226562 14.445312 6.300781 C 14.277344 6.375 14.125 6.476562 13.996094 6.609375 C 13.867188 6.742188 13.769531 6.894531 13.699219 7.066406 C 13.632812 7.238281 13.597656 7.417969 13.601562 7.601562 L 13.601562 13.191406 L 8.011719 13.191406 C 7.824219 13.191406 7.644531 13.222656 7.472656 13.292969 C 7.296875 13.363281 7.144531 13.464844 7.011719 13.59375 C 6.878906 13.726562 6.773438 13.878906 6.703125 14.050781 C 6.628906 14.222656 6.59375 14.402344 6.59375 14.589844 C 6.59375 14.777344 6.628906 14.957031 6.703125 15.128906 C 6.773438 15.300781 6.878906 15.453125 7.011719 15.585938 C 7.144531 15.71875 7.296875 15.816406 7.472656 15.886719 C 7.644531 15.957031 7.824219 15.992188 8.011719 15.988281 L 13.601562 15.988281 L 13.601562 21.578125 C 13.597656 21.765625 13.632812 21.945312 13.703125 22.117188 C 13.773438 22.292969 13.871094 22.445312 14.003906 22.578125 C 14.136719 22.710938 14.285156 22.8125 14.460938 22.886719 C 14.632812 22.957031 14.8125 22.996094 15 22.996094 C 15.1875 22.996094 15.367188 22.957031 15.539062 22.886719 C 15.710938 22.8125 15.863281 22.710938 15.992188 22.578125 C 16.125 22.445312 16.226562 22.292969 16.296875 22.117188 C 16.367188 21.945312 16.398438 21.765625 16.394531 21.578125 L 16.394531 15.988281 L 21.984375 15.988281 C 22.171875 15.992188 22.351562 15.957031 22.527344 15.886719 C 22.699219 15.816406 22.855469 15.71875 22.988281 15.585938 C 23.121094 15.453125 23.222656 15.300781 23.296875 15.128906 C 23.367188 14.957031 23.402344 14.777344 23.402344 14.589844 C 23.402344 14.402344 23.367188 14.222656 23.296875 14.050781 C 23.222656 13.878906 23.121094 13.726562 22.988281 13.59375 C 22.855469 13.464844 22.699219 13.363281 22.527344 13.292969 C 22.351562 13.222656 22.171875 13.191406 21.984375 13.191406 L 16.394531 13.191406 L 16.394531 7.601562 C 16.398438 7.414062 16.363281 7.234375 16.292969 7.058594 C 16.222656 6.882812 16.121094 6.730469 15.988281 6.59375 C 15.851562 6.460938 15.699219 6.359375 15.523438 6.289062 C 15.347656 6.21875 15.167969 6.183594 14.976562 6.1875 Z M 14.976562 6.1875 " fill-opacity="1" fill-rule="nonzero"/></g></svg>